<svg width="24" height="25" viewBox="0 0 24 25" fill="none" xmlns="http://www.w3.org/2000/svg">
<g clip-path="url(#clip0_3_6324)">
<path d="M23.52 12.0493H22.191C22.0778 9.67728 21.141 7.419 19.542 5.6633L20.485 4.72031C20.5289 4.67651 20.5636 4.62442 20.5871 4.56708C20.6106 4.50974 20.6225 4.44827 20.622 4.38629C20.6236 4.29131 20.5967 4.19802 20.5448 4.11844C20.4929 4.03886 20.4184 3.97662 20.3309 3.93973C20.2434 3.90284 20.1468 3.89301 20.0536 3.91147C19.9604 3.92992 19.8749 3.97584 19.808 4.04331L18.865 4.9863C17.1093 3.38732 14.851 2.45056 12.479 2.33731V1.00931C12.4741 0.883749 12.4221 0.764636 12.3333 0.675691C12.2445 0.586746 12.1255 0.534479 12 0.529298C11.9369 0.529166 11.8745 0.541477 11.8162 0.565553C11.7579 0.589628 11.7049 0.624989 11.6603 0.669587C11.6157 0.714186 11.5803 0.767145 11.5563 0.82544C11.5322 0.883736 11.5199 0.946237 11.52 1.00931V2.33829C9.14799 2.45154 6.8897 3.38832 5.134 4.98731L4.191 4.04431C4.12412 3.97684 4.03859 3.9309 3.9454 3.91245C3.85222 3.89399 3.75564 3.90385 3.6681 3.94074C3.58056 3.97762 3.50605 4.03987 3.45418 4.11945C3.4023 4.19903 3.37542 4.29232 3.377 4.3873C3.37653 4.44928 3.3884 4.51074 3.41192 4.56809C3.43544 4.62543 3.47014 4.67749 3.514 4.72128L4.457 5.66431C2.85802 7.42001 1.92125 9.67829 1.808 12.0503H0.48C0.352696 12.0503 0.230606 12.1009 0.140589 12.1909C0.0505713 12.2809 0 12.403 0 12.5303C0 12.6576 0.0505713 12.7797 0.140589 12.8697C0.230606 12.9597 0.352696 13.0103 0.48 13.0103H1.809C1.92225 15.3823 2.85902 17.6406 4.458 19.3963L3.515 20.3393C3.43031 20.4301 3.38417 20.5502 3.38633 20.6743C3.38849 20.7985 3.43876 20.9169 3.52655 21.0047C3.61435 21.0925 3.7328 21.1428 3.85694 21.145C3.98108 21.1471 4.10121 21.101 4.192 21.0163L5.135 20.0733C6.8907 21.6723 9.14899 22.609 11.521 22.7223V24.0513C11.521 24.1786 11.5716 24.3007 11.6616 24.3907C11.7516 24.4807 11.8737 24.5313 12.001 24.5313C12.1283 24.5313 12.2504 24.4807 12.3404 24.3907C12.4304 24.3007 12.481 24.1786 12.481 24.0513V22.7223C14.853 22.609 17.1113 21.6723 18.867 20.0733L19.81 21.0163C19.8539 21.0633 19.9067 21.101 19.9655 21.1272C20.0242 21.1533 20.0877 21.1674 20.1519 21.1685C20.2162 21.1696 20.2801 21.1578 20.3397 21.1337C20.3993 21.1096 20.4535 21.0737 20.499 21.0283C20.5444 20.9828 20.5803 20.9286 20.6044 20.869C20.6285 20.8094 20.6403 20.7455 20.6392 20.6812C20.6381 20.617 20.624 20.5535 20.5979 20.4948C20.5717 20.436 20.534 20.3832 20.487 20.3393L19.544 19.3963C21.143 17.6406 22.0798 15.3823 22.193 13.0103H23.52C23.6459 13.0053 23.7653 12.953 23.8543 12.8639C23.9433 12.7747 23.9953 12.6552 24 12.5293C24.0001 12.4662 23.9878 12.4038 23.9637 12.3455C23.9397 12.2872 23.9043 12.2342 23.8597 12.1896C23.8151 12.145 23.7621 12.1096 23.7038 12.0856C23.6455 12.0615 23.5831 12.0492 23.52 12.0493ZM12.48 3.29831C14.5944 3.41312 16.6058 4.24804 18.18 5.66431L17.443 6.40131C16.0671 5.17807 14.3181 4.45595 12.48 4.3523V3.29831ZM11.52 3.29831V4.3523C9.68191 4.45595 7.93286 5.17807 6.557 6.40131L5.82 5.66431C7.39417 4.24804 9.40561 3.41312 11.52 3.29831ZM5.134 6.34931L5.871 7.0863C4.64776 8.46217 3.92566 10.2112 3.822 12.0493H2.769C2.88353 9.93502 3.71809 7.92362 5.134 6.34931ZM2.768 13.0093H3.823C3.92666 14.8474 4.64876 16.5964 5.872 17.9723L5.135 18.7093C3.71866 17.1352 2.88273 15.1237 2.768 13.0093ZM11.519 21.7603C9.40461 21.6455 7.39317 20.8106 5.819 19.3943L6.556 18.6573C7.93186 19.8805 9.68091 20.6026 11.519 20.7063V21.7603ZM11.999 19.7603C11.836 19.7603 11.673 19.7513 11.519 19.7433C9.93777 19.6353 8.43547 19.0122 7.242 17.9693C6.99649 17.7581 6.76718 17.5288 6.556 17.2833C5.51313 16.0898 4.89001 14.5875 4.782 13.0063C4.773 12.8523 4.765 12.6893 4.765 12.5263C4.765 12.3633 4.774 12.2003 4.782 12.0463C4.89001 10.4651 5.51313 8.96276 6.556 7.76929C6.76718 7.52378 6.99649 7.29447 7.242 7.08328C8.43547 6.04041 9.93777 5.41731 11.519 5.3093C11.673 5.3003 11.836 5.2923 11.999 5.2923C12.162 5.2923 12.325 5.3013 12.479 5.3093C14.0602 5.41731 15.5625 6.04041 16.756 7.08328C17.0015 7.29447 17.2308 7.52378 17.442 7.76929C18.4849 8.96276 19.108 10.4651 19.216 12.0463C19.225 12.2003 19.233 12.3633 19.233 12.5263C19.233 12.6893 19.224 12.8523 19.216 13.0063C19.108 14.5875 18.4849 16.0898 17.442 17.2833C17.2308 17.5288 17.0015 17.7581 16.756 17.9693C15.5625 19.0122 14.0602 19.6353 12.479 19.7433C12.326 19.7553 12.163 19.7633 12 19.7633L11.999 19.7603ZM12.479 21.7603V20.7063C14.3171 20.6026 16.0661 19.8805 17.442 18.6573L18.179 19.3943C16.6052 20.8107 14.5942 21.646 12.48 21.7613L12.479 21.7603ZM18.865 18.7093L18.128 17.9723C19.3512 16.5964 20.0733 14.8474 20.177 13.0093H21.231C21.1166 15.1236 20.281 17.135 18.865 18.7093ZM20.176 12.0493C20.0723 10.2112 19.3502 8.46217 18.127 7.0863L18.864 6.34931C20.2803 7.92348 21.1152 9.93489 21.23 12.0493H20.176Z" fill="#0B032D"/>
<path d="M17.862 13.1003L16.285 14.0003V15.3163H16.238C14.902 14.7334 13.4575 14.441 12 14.4583C10.5426 14.4406 9.09804 14.7327 7.762 15.3153H7.715V13.9993L6.429 13.2653V14.8843C6.51376 14.8843 6.59663 14.9094 6.66713 14.9565C6.73764 15.0035 6.79262 15.0704 6.82515 15.1487C6.85768 15.227 6.86629 15.3131 6.8499 15.3963C6.83351 15.4794 6.79285 15.5559 6.73305 15.6159C6.67325 15.676 6.597 15.717 6.51391 15.7338C6.43083 15.7506 6.34463 15.7424 6.26621 15.7102C6.18779 15.6781 6.12065 15.6234 6.07327 15.5531C6.02589 15.4828 6.0004 15.4001 6 15.3153V12.8653C6.00036 12.8252 6.00922 12.7857 6.026 12.7493C6.04982 12.6989 6.08857 12.657 6.137 12.6293L11.862 9.35532C11.904 9.33221 11.9511 9.32007 11.999 9.32007C12.0469 9.32007 12.094 9.33221 12.136 9.35532L17.862 12.6293C17.9028 12.6536 17.9366 12.6881 17.9601 12.7293C17.9836 12.7706 17.9959 12.8173 17.9959 12.8648C17.9959 12.9123 17.9836 12.959 17.9601 13.0003C17.9366 13.0416 17.9028 13.076 17.862 13.1003Z" fill="#FCBF17"/>
</g>
<defs>
<clipPath id="clip0_3_6324">
<rect width="24" height="24" fill="white" transform="translate(0 0.529297)"/>
</clipPath>
</defs>
</svg>
