<svg width="24" height="25" viewBox="0 0 24 25" fill="none" xmlns="http://www.w3.org/2000/svg">
    <g clip-path="url(#clip0_3_3933)">
        <path d="M14.43 19.3478C14.3315 19.3482 14.2339 19.3289 14.1429 19.2912C14.0519 19.2534 13.9693 19.1979 13.9 19.1278C13.7605 18.9867 13.6823 18.7963 13.6823 18.5978C13.6823 18.3994 13.7605 18.209 13.9 18.0678L19.44 12.5278L13.9 6.98785C13.7702 6.8452 13.7004 6.65805 13.705 6.46526C13.7096 6.27248 13.7883 6.08887 13.9247 5.95257C14.0611 5.81628 14.2448 5.73777 14.4376 5.73335C14.6304 5.72893 14.8175 5.79894 14.96 5.92885L21.03 11.9988C21.1695 12.14 21.2477 12.3304 21.2477 12.5288C21.2477 12.7273 21.1695 12.9177 21.03 13.0588L14.96 19.1288C14.8906 19.1987 14.808 19.254 14.717 19.2916C14.626 19.3292 14.5285 19.3483 14.43 19.3478Z"
              fill="#0B032D"/>
        <path d="M20.33 13.2788H3.5C3.30149 13.2775 3.11149 13.1981 2.97112 13.0577C2.83075 12.9173 2.75131 12.7273 2.75 12.5288C2.75131 12.3303 2.83075 12.1403 2.97112 11.9999C3.11149 11.8596 3.30149 11.7801 3.5 11.7788H20.33C20.5285 11.7801 20.7185 11.8596 20.8589 11.9999C20.9993 12.1403 21.0787 12.3303 21.08 12.5288C21.0787 12.7273 20.9993 12.9173 20.8589 13.0577C20.7185 13.1981 20.5285 13.2775 20.33 13.2788Z"
              fill="#0B032D"/>
    </g>
    <defs>
        <clipPath id="clip0_3_3933">
            <rect width="24" height="24" fill="white" transform="translate(0 0.528809)"/>
        </clipPath>
    </defs>
</svg>
