<svg width="24" height="25" viewBox="0 0 24 25" fill="none" xmlns="http://www.w3.org/2000/svg">
    <g clip-path="url(#clip0_3_4004)">
        <path d="M9.57 19.3478C9.47147 19.3482 9.37387 19.3289 9.28287 19.2911C9.19187 19.2534 9.10931 19.1979 9.04 19.1278L2.971 13.0578C2.83152 12.9167 2.7533 12.7263 2.7533 12.5278C2.7533 12.3294 2.83152 12.139 2.971 11.9978L9.04 5.92883C9.18217 5.79635 9.37022 5.72423 9.56452 5.72766C9.75882 5.73108 9.94421 5.8098 10.0816 5.94721C10.219 6.08462 10.2977 6.27001 10.3012 6.46431C10.3046 6.65861 10.2325 6.84666 10.1 6.98883L4.56 12.5288L10.1 18.0688C10.2395 18.21 10.3177 18.4004 10.3177 18.5988C10.3177 18.7973 10.2395 18.9877 10.1 19.1288C10.0312 19.1995 9.9487 19.2553 9.85757 19.293C9.76644 19.3306 9.66859 19.3493 9.57 19.3478Z"
              fill="#0B032D"/>
        <path d="M20.5 13.2788H3.66998C3.47148 13.2775 3.28147 13.1981 3.1411 13.0577C3.00073 12.9173 2.92129 12.7273 2.91998 12.5288C2.92129 12.3303 3.00073 12.1403 3.1411 11.9999C3.28147 11.8596 3.47148 11.7801 3.66998 11.7788H20.5C20.6985 11.7801 20.8885 11.8596 21.0289 11.9999C21.1692 12.1403 21.2487 12.3303 21.25 12.5288C21.2487 12.7273 21.1692 12.9173 21.0289 13.0577C20.8885 13.1981 20.6985 13.2775 20.5 13.2788Z"
              fill="#0B032D"/>
    </g>
    <defs>
        <clipPath id="clip0_3_4004">
            <rect width="24" height="24" fill="white" transform="translate(0 0.528809)"/>
        </clipPath>
    </defs>
</svg>
