<svg width="24" height="25" viewBox="0 0 24 25" fill="none" xmlns="http://www.w3.org/2000/svg">
<g clip-path="url(#clip0_3_4005)">
<path d="M4.93 23.2788C4.52365 23.2828 4.12347 23.1793 3.77 22.9788C3.36644 22.7075 3.04191 22.3343 2.82938 21.8969C2.61685 21.4595 2.52391 20.9737 2.56 20.4888V6.38881C2.56211 5.16681 3.04848 3.99547 3.91257 3.13138C4.77665 2.2673 5.948 1.78092 7.17 1.77881L16.82 1.77881C18.042 1.78092 19.2133 2.2673 20.0774 3.13138C20.9415 3.99547 21.4279 5.16681 21.43 6.38881V20.4788C21.4661 20.9637 21.3731 21.4495 21.1606 21.8869C20.9481 22.3243 20.6235 22.6975 20.22 22.9688C19.7858 23.1892 19.3011 23.2914 18.8149 23.2651C18.3286 23.2388 17.8579 23.0848 17.45 22.8188L12.57 20.1088C12.3886 20.0297 12.1929 19.9888 11.995 19.9888C11.7971 19.9888 11.6014 20.0297 11.42 20.1088L6.54 22.8188C6.05094 23.106 5.49695 23.2643 4.93 23.2788ZM7.18 3.27881C6.35598 3.28145 5.56647 3.60995 4.98381 4.19262C4.40114 4.77529 4.07263 5.5648 4.07 6.38881V20.4788C4.04031 20.7023 4.06786 20.9296 4.15007 21.1395C4.23228 21.3494 4.36645 21.535 4.54 21.6788C4.75057 21.7597 4.97804 21.7865 5.20164 21.7568C5.42524 21.7271 5.63783 21.6418 5.82 21.5088L10.7 18.7988C11.1035 18.5965 11.5486 18.4911 12 18.4911C12.4514 18.4911 12.8965 18.5965 13.3 18.7988L18.18 21.5088C18.3611 21.6441 18.5738 21.7308 18.7978 21.7606C19.0219 21.7903 19.2499 21.7622 19.46 21.6788C19.6318 21.5335 19.7647 21.3478 19.8468 21.1383C19.9288 20.9288 19.9574 20.7021 19.93 20.4788V6.38881C19.9274 5.5648 19.5989 4.77529 19.0162 4.19262C18.4335 3.60995 17.644 3.28145 16.82 3.27881H7.18Z" fill="#0B032D"/>
</g>
<defs>
<clipPath id="clip0_3_4005">
<rect width="24" height="24" fill="white" transform="translate(0 0.528809)"/>
</clipPath>
</defs>
</svg>
