<svg width="24" height="25" viewBox="0 0 24 25" fill="none" xmlns="http://www.w3.org/2000/svg">
<g clip-path="url(#clip0_3_5434)">
<path d="M22 12.5291C22 14.5069 21.4135 16.4403 20.3147 18.0848C19.2159 19.7292 17.6541 21.011 15.8268 21.7678C13.9996 22.5247 11.9889 22.7228 10.0491 22.3369C8.10929 21.9511 6.32746 20.9986 4.92894 19.6001C3.53041 18.2016 2.578 16.4198 2.19215 14.48C1.8063 12.5401 2.00433 10.5295 2.76121 8.70222C3.51809 6.87496 4.79981 5.31317 6.4443 4.21436C8.08879 3.11554 10.0222 2.52905 12 2.52905C14.6522 2.52905 17.1957 3.58262 19.0711 5.45798C20.9464 7.33335 22 9.87689 22 12.5291Z" fill="#C4C2CC"/>
<path d="M15.71 16.4591C15.5751 16.4615 15.4427 16.4231 15.33 16.3491L12.23 14.4991C11.834 14.2417 11.5056 13.8931 11.2724 13.4824C11.0392 13.0717 10.9081 12.611 10.89 12.1391V8.03906C10.8913 7.84055 10.9707 7.65055 11.1111 7.51018C11.2515 7.36981 11.4415 7.29037 11.64 7.28906C11.8385 7.29037 12.0285 7.36981 12.1689 7.51018C12.3093 7.65055 12.3887 7.84055 12.39 8.03906V12.1391C12.4088 12.3508 12.473 12.556 12.5782 12.7406C12.6835 12.9253 12.8274 13.0851 13 13.2091L16.1 15.0591C16.1849 15.1094 16.259 15.1761 16.3181 15.2552C16.3772 15.3343 16.42 15.4243 16.4442 15.52C16.4684 15.6157 16.4734 15.7153 16.4589 15.8129C16.4445 15.9106 16.4108 16.0044 16.36 16.0891C16.292 16.2009 16.1967 16.2935 16.0829 16.3583C15.9692 16.423 15.8409 16.4577 15.71 16.4591Z" fill="#0B032D"/>
</g>
<defs>
<clipPath id="clip0_3_5434">
<rect width="24" height="24" fill="white" transform="translate(0 0.529053)"/>
</clipPath>
</defs>
</svg>
