<svg width="24" height="25" viewBox="0 0 24 25" fill="none" xmlns="http://www.w3.org/2000/svg">
<g clip-path="url(#clip0_3_3970)">
<path d="M4.533 20.5288C4.46299 20.5289 4.39365 20.5151 4.32895 20.4884C4.26426 20.4616 4.20549 20.4223 4.156 20.3728C4.10648 20.3233 4.06719 20.2645 4.04038 20.1998C4.01358 20.1351 3.99978 20.0658 3.99978 19.9958C3.99978 19.9258 4.01358 19.8564 4.04038 19.7917C4.06719 19.7271 4.10648 19.6683 4.156 19.6188L19.09 4.68479C19.1395 4.63526 19.1983 4.59597 19.263 4.56917C19.3276 4.54236 19.397 4.52856 19.467 4.52856C19.537 4.52856 19.6064 4.54236 19.671 4.56917C19.7357 4.59597 19.7945 4.63526 19.844 4.68479C19.8935 4.73429 19.9328 4.79306 19.9596 4.85775C19.9864 4.92243 20.0002 4.99177 20.0002 5.06179C20.0002 5.13181 19.9864 5.20114 19.9596 5.26583C19.9328 5.33052 19.8935 5.38929 19.844 5.43879L4.91 20.3728C4.86052 20.4223 4.80175 20.4616 4.73705 20.4884C4.67236 20.5151 4.60302 20.5289 4.533 20.5288Z" fill="#0B032D"/>
<path d="M19.467 20.5288C19.397 20.5289 19.3276 20.5151 19.263 20.4884C19.1983 20.4616 19.1395 20.4223 19.09 20.3728L4.156 5.43879C4.10648 5.38929 4.06719 5.33052 4.04038 5.26583C4.01358 5.20114 3.99978 5.13181 3.99978 5.06179C3.99978 4.99177 4.01358 4.92243 4.04038 4.85775C4.06719 4.79306 4.10648 4.73429 4.156 4.68479C4.2055 4.63526 4.26427 4.59597 4.32896 4.56917C4.39365 4.54236 4.46298 4.52856 4.533 4.52856C4.60302 4.52856 4.67236 4.54236 4.73705 4.56917C4.80173 4.59597 4.86051 4.63526 4.91 4.68479L19.844 19.6188C19.9186 19.6933 19.9694 19.7883 19.99 19.8917C20.0106 19.9952 20 20.1024 19.9596 20.1998C19.9193 20.2972 19.8509 20.3805 19.7632 20.439C19.6755 20.4976 19.5725 20.5288 19.467 20.5288Z" fill="#0B032D"/>
</g>
<defs>
<clipPath id="clip0_3_3970">
<rect width="24" height="24" fill="white" transform="translate(0 0.528809)"/>
</clipPath>
</defs>
</svg>
