<svg width="24" height="25" viewBox="0 0 24 25" fill="none" xmlns="http://www.w3.org/2000/svg">
<path d="M18.67 2.52906H16.77C16.319 2.47129 15.8607 2.51764 15.4303 2.66456C15 2.81148 14.6091 3.05506 14.2875 3.37659C13.966 3.69813 13.7224 4.08908 13.5755 4.51941C13.4286 4.94975 13.3822 5.40803 13.44 5.85906V7.75906C13.3822 8.2101 13.4286 8.66838 13.5755 9.09871C13.7224 9.52905 13.966 9.91999 14.2875 10.2415C14.6091 10.5631 15 10.8066 15.4303 10.9536C15.8607 11.1005 16.319 11.1468 16.77 11.0891H18.67C19.121 11.1468 19.5793 11.1005 20.0096 10.9536C20.44 10.8066 20.8309 10.5631 21.1525 10.2415C21.474 9.91999 21.7176 9.52905 21.8645 9.09871C22.0114 8.66838 22.0578 8.2101 22 7.75906V5.85906C22.0578 5.40803 22.0114 4.94975 21.8645 4.51941C21.7176 4.08908 21.474 3.69813 21.1525 3.37659C20.8309 3.05506 20.44 2.81148 20.0096 2.66456C19.5793 2.51764 19.121 2.47129 18.67 2.52906Z" fill="#C4C2CC"/>
<path d="M7.24 13.959H5.34C4.88831 13.9002 4.42914 13.9457 3.99781 14.0921C3.56647 14.2385 3.17444 14.4818 2.85187 14.8035C2.5293 15.1251 2.28477 15.5164 2.13709 15.9473C1.98941 16.3782 1.94251 16.8372 2 17.289V19.189C1.94116 19.6407 1.98668 20.0999 2.13307 20.5312C2.27945 20.9626 2.5228 21.3546 2.84441 21.6772C3.16602 21.9997 3.55731 22.2443 3.98821 22.3919C4.41911 22.5396 4.87814 22.5865 5.33 22.529H7.23C7.68103 22.5868 8.13931 22.5405 8.56965 22.3935C8.99998 22.2466 9.39093 22.003 9.71247 21.6815C10.034 21.36 10.2776 20.969 10.4245 20.5387C10.5714 20.1084 10.6178 19.6501 10.56 19.199V17.299C10.6208 16.8479 10.5769 16.3887 10.4319 15.9572C10.2869 15.5257 10.0445 15.1333 9.72355 14.8104C9.40261 14.4875 9.01168 14.2428 8.58103 14.0952C8.15038 13.9476 7.69153 13.901 7.24 13.959Z" fill="#C4C2CC"/>
<path d="M10.58 6.81905C10.58 7.66753 10.3284 8.49696 9.85701 9.20245C9.38562 9.90794 8.71561 10.4578 7.93171 10.7825C7.14782 11.1072 6.28524 11.1922 5.45306 11.0266C4.62089 10.8611 3.85648 10.4525 3.25651 9.85254C2.65655 9.25257 2.24796 8.48817 2.08243 7.65599C1.9169 6.82381 2.00186 5.96124 2.32656 5.17734C2.65126 4.39345 3.20112 3.72344 3.90661 3.25205C4.61209 2.78066 5.44152 2.52905 6.29 2.52905C7.42778 2.52905 8.51896 2.98103 9.32349 3.78556C10.128 4.5901 10.58 5.68127 10.58 6.81905Z" fill="#0B032D"/>
<path d="M22 18.239C22 19.0875 21.7484 19.9169 21.277 20.6224C20.8056 21.3279 20.1356 21.8778 19.3517 22.2025C18.5678 22.5272 17.7052 22.6121 16.8731 22.4466C16.0409 22.2811 15.2765 21.8725 14.6765 21.2725C14.0765 20.6726 13.668 19.9082 13.5024 19.076C13.3369 18.2438 13.4219 17.3812 13.7466 16.5973C14.0713 15.8134 14.6211 15.1434 15.3266 14.672C16.0321 14.2006 16.8615 13.949 17.71 13.949C18.8478 13.949 19.939 14.401 20.7435 15.2055C21.548 16.0101 22 17.1013 22 18.239Z" fill="#0B032D"/>
</svg>
