<svg width="18" height="19" viewBox="0 0 18 19" fill="none" xmlns="http://www.w3.org/2000/svg">
<path d="M5.4 2H7.35C9.75 2 11.25 3.5 11.25 5.9V8.9375H7.92L9.4725 7.385C9.585 7.2725 9.6375 7.13 9.6375 6.9875C9.6375 6.845 9.585 6.7025 9.4725 6.59C9.255 6.3725 8.895 6.3725 8.6775 6.59L6.165 9.1025C5.9475 9.32 5.9475 9.68 6.165 9.8975L8.6775 12.41C8.895 12.6275 9.255 12.6275 9.4725 12.41C9.69 12.1925 9.69 11.8325 9.4725 11.615L7.92 10.0625H11.25V13.1C11.25 15.5 9.75 17 7.35 17H5.4075C3.0075 17 1.5075 15.5 1.5075 13.1V5.9C1.5 3.5 3 2 5.4 2Z" fill="white"/>
<path d="M15.9375 8.9375C16.245 8.9375 16.5 9.1925 16.5 9.5C16.5 9.8075 16.245 10.0625 15.9375 10.0625H11.25V8.9375H15.9375Z" fill="white"/>
</svg>
