<svg width="87" height="37" viewBox="0 0 87 37" fill="none" xmlns="http://www.w3.org/2000/svg">
<g clip-path="url(#clip0_5_12689)">
<path d="M62.9484 7.15931L78.0424 3.87331C83.0764 3.18431 86.8424 7.79631 86.8424 12.6343V27.6543C86.8369 29.9829 85.9067 32.214 84.2565 33.8569C82.6062 35.4998 80.371 36.4201 78.0424 36.4153H62.9484C60.6198 36.4201 58.3846 35.4998 56.7344 33.8569C55.0842 32.214 54.154 29.9829 54.1484 27.6543V15.9203C54.1484 11.0813 58.0644 8.21331 62.9484 7.15931Z" fill="#FCBF17"/>
<path d="M35.2171 36.2905H25.6021C25.3891 36.3095 25.1741 36.3385 24.9701 36.3485C23.9831 36.3965 23.0311 36.2135 23.0901 34.9965C23.1411 33.8885 24.0511 33.7515 24.9701 33.7965C25.1851 33.8085 25.3981 33.8375 25.6021 33.8565H35.2171C36.0835 33.7092 36.9741 33.8198 37.7781 34.1745C38.7161 34.7525 38.7161 35.3615 37.7781 35.9695C37.3914 36.243 36.9243 36.3793 36.4511 36.3565C36.0431 36.3595 35.6291 36.2995 35.2171 36.2905ZM61.3731 34.9995C61.4161 33.6895 62.4021 33.7495 63.3481 33.8125C63.6168 33.8354 63.8867 33.8417 64.1561 33.8315H68.3331C68.5061 33.8184 68.6798 33.8438 68.8418 33.906C69.0037 33.9681 69.1498 34.0655 69.2695 34.1911C69.3893 34.3166 69.4796 34.4672 69.534 34.6319C69.5884 34.7966 69.6055 34.9714 69.5841 35.1435C69.5813 35.3037 69.5465 35.4616 69.4818 35.608C69.417 35.7545 69.3235 35.8865 69.207 35.9963C69.0904 36.106 68.953 36.1914 68.8029 36.2472C68.6528 36.3031 68.4931 36.3284 68.3331 36.3215H64.1571C63.8904 36.3084 63.6232 36.3131 63.3571 36.3355C63.1631 36.3465 62.9671 36.3575 62.7791 36.3575C61.9951 36.3585 61.3361 36.1665 61.3741 34.9985L61.3731 34.9995ZM77.5141 35.5295C77.3932 35.2902 77.3638 35.0149 77.4316 34.7554C77.4994 34.496 77.6596 34.2702 77.8821 34.1205C78.4305 33.8827 79.0214 33.7584 79.6192 33.7551C80.2169 33.7518 80.8092 33.8697 81.3601 34.1015C81.5759 34.2569 81.7328 34.4806 81.8055 34.7364C81.8781 34.9922 81.8621 35.265 81.7601 35.5105C81.5181 36.1465 80.9751 36.3485 79.4031 36.3395C79.2711 36.3455 79.1321 36.3525 78.9901 36.3525C78.6885 36.3894 78.383 36.3295 78.1177 36.1814C77.8524 36.0332 77.641 35.8056 77.5141 35.5295ZM20.2081 36.2905H2.24413C2.03113 36.3095 1.81713 36.3385 1.61513 36.3385C0.683126 36.3525 -0.0518742 35.9815 0.0531258 34.9885C0.189126 33.6665 1.24713 33.7245 2.25313 33.8395H20.2081C20.523 33.8028 20.8403 33.7901 21.1571 33.8015C21.9571 33.8785 22.5141 34.3305 22.4081 35.1425C22.4015 35.3204 22.3572 35.4948 22.2784 35.6543C22.1996 35.8139 22.0879 35.9549 21.9506 36.0683C21.8134 36.1816 21.6538 36.2646 21.4822 36.3119C21.3106 36.3591 21.131 36.3696 20.9551 36.3425C20.7053 36.3402 20.4559 36.3229 20.2081 36.2905ZM38.8931 34.9905C38.9411 33.8905 39.8541 33.7455 40.7731 33.7905C40.9861 33.7995 41.2011 33.8185 41.4051 33.8385H49.4131C49.5852 33.8225 49.7587 33.8456 49.9205 33.9062C50.0824 33.9668 50.2284 34.0632 50.3476 34.1883C50.4669 34.3134 50.5562 34.4639 50.6089 34.6285C50.6617 34.7931 50.6764 34.9674 50.6521 35.1385C50.6553 35.298 50.6246 35.4563 50.5622 35.6031C50.4998 35.7498 50.407 35.8817 50.29 35.9901C50.173 36.0984 50.0343 36.1807 49.8832 36.2317C49.7321 36.2826 49.5719 36.301 49.4131 36.2855H41.4051C41.1931 36.3045 40.9791 36.3235 40.7731 36.3335C40.6841 36.3335 40.5961 36.3405 40.5081 36.3405C39.6241 36.3455 38.8491 36.0935 38.8951 34.9885L38.8931 34.9905ZM83.7851 36.3285C83.4484 36.3182 83.1278 36.1817 82.887 35.9461C82.6462 35.7105 82.5028 35.393 82.4851 35.0565C82.5009 34.8657 82.5563 34.6803 82.6476 34.5121C82.739 34.3438 82.8644 34.1965 83.0159 34.0794C83.1673 33.9622 83.3415 33.878 83.5273 33.8318C83.7131 33.7857 83.9065 33.7788 84.0951 33.8115C84.9011 33.8785 85.4151 34.3315 85.3471 35.1435C85.3429 35.3142 85.3033 35.4821 85.2307 35.6366C85.1581 35.7911 85.0542 35.9288 84.9256 36.041C84.7969 36.1532 84.6464 36.2374 84.4834 36.2883C84.3205 36.3392 84.1488 36.3556 83.9791 36.3365C83.9151 36.3365 83.8501 36.3335 83.7851 36.3285ZM74.4851 36.3185H71.9251C71.5586 36.3459 71.1904 36.3396 70.8251 36.2995C70.6657 36.286 70.5104 36.241 70.3684 36.1672C70.2264 36.0934 70.1003 35.9923 69.9976 35.8696C69.8948 35.7469 69.8173 35.6051 69.7695 35.4524C69.7217 35.2996 69.7046 35.1389 69.7191 34.9795C69.7283 34.684 69.8463 34.4023 70.0504 34.1885C70.2545 33.9746 70.5304 33.8436 70.8251 33.8205C71.1907 33.7855 71.5585 33.7792 71.9251 33.8015H74.4851C74.8516 33.7744 75.2198 33.7808 75.5851 33.8205C75.7456 33.8327 75.902 33.8768 76.0451 33.9502C76.1883 34.0237 76.3153 34.125 76.4187 34.2483C76.5221 34.3716 76.5999 34.5143 76.6473 34.668C76.6948 34.8218 76.711 34.9834 76.6951 35.1435C76.6871 35.4381 76.5702 35.7193 76.3671 35.9328C76.164 36.1462 75.8889 36.2769 75.5951 36.2995C75.4466 36.3255 75.2959 36.3376 75.1451 36.3355C74.9261 36.3355 74.7061 36.3185 74.4891 36.3185H74.4851ZM51.2151 34.9295C51.3501 33.6165 52.4151 33.6745 53.4051 33.7705H59.5051C59.6767 33.7572 59.849 33.7822 60.0098 33.8437C60.1705 33.9052 60.3155 34.0016 60.4344 34.1261C60.5532 34.2505 60.643 34.3998 60.697 34.5631C60.7511 34.7264 60.7682 34.8998 60.7471 35.0705C60.7461 35.23 60.7128 35.3875 60.6491 35.5337C60.5854 35.6798 60.4926 35.8115 60.3765 35.9208C60.2603 36.03 60.1232 36.1145 59.9734 36.1691C59.8236 36.2237 59.6643 36.2473 59.5051 36.2385H53.4051C53.1921 36.2475 52.9781 36.2775 52.7761 36.2775H52.7451C51.8301 36.2805 51.1231 35.9025 51.2191 34.9295H51.2151ZM1.41213 27.6935C0.924011 27.3191 0.53973 26.8262 0.295793 26.2614C0.051855 25.6967 -0.0436376 25.079 0.0183872 24.4669C0.0804121 23.8549 0.297894 23.2689 0.650172 22.7646C1.00245 22.2603 1.47782 21.8544 2.03113 21.5855C3.56789 20.8299 5.24514 20.4025 6.95613 20.3305C9.29971 20.1189 11.6622 20.3021 13.9451 20.8725C14.5841 21.0265 15.3221 21.1615 15.1191 22.0385C14.8841 23.0725 14.0621 22.5135 13.5481 22.3975C10.2911 21.6715 7.02413 21.2095 3.72813 22.1345C2.43813 22.4925 0.847126 22.8345 0.800126 24.4035C0.761126 25.8385 2.24513 26.4285 3.43713 26.8535C7.17898 28.226 11.2669 28.3377 15.0781 27.1715C16.5731 26.7185 18.1121 26.0435 18.3921 24.2875C18.6661 22.5605 17.4641 21.4525 16.2411 20.4525C15.9121 20.1835 15.5541 19.9615 15.1931 19.7205C14.7091 19.4125 14.1571 19.2205 14.3021 18.4075C14.4481 17.6175 15.0771 17.6375 15.6021 17.4445C16.0471 17.2785 16.5301 17.1915 16.9791 17.0175C18.1401 16.5745 19.2281 16.1175 19.0331 14.5005C19.0809 13.8684 19.2347 13.2487 19.4881 12.6675C19.6241 12.1185 19.8181 11.6245 20.4981 11.6345C21.3301 11.6535 21.3201 12.3785 21.4081 12.9085C21.4931 13.7617 21.3069 14.62 20.876 15.3612C20.4451 16.1025 19.7915 16.6891 19.0081 17.0375C17.8768 17.5814 16.6814 17.9802 15.4501 18.2245C16.4402 18.8929 17.3391 19.6872 18.1241 20.5875C20.0841 23.0775 19.7431 25.7395 17.2151 27.6805C15.3551 29.1045 12.3261 29.8155 9.30113 29.8155C6.27613 29.8155 3.26213 29.1095 1.41213 27.6935ZM48.4821 28.0625C47.8377 27.7337 47.3077 27.2179 46.9615 26.5826C46.6153 25.9473 46.4691 25.2223 46.5421 24.5025C46.5595 23.8291 46.7811 23.1768 47.1775 22.6321C47.574 22.0874 48.1266 21.6761 48.7621 21.4525C52.7771 19.7765 56.8861 19.9525 61.0051 20.9805C61.1264 20.9931 61.2435 21.0322 61.3479 21.0952C61.4523 21.1582 61.5415 21.2434 61.6091 21.3449C61.6768 21.4463 61.7211 21.5615 61.7391 21.6821C61.7571 21.8027 61.7482 21.9258 61.7131 22.0425C61.5131 22.8425 60.8701 22.5425 60.4061 22.4425C57.6176 21.6789 54.7098 21.4498 51.8361 21.7675C50.5586 21.8853 49.3235 22.2871 48.2211 22.9435C46.9981 23.7745 46.9411 24.6905 47.9991 25.6845C48.1186 25.7921 48.2445 25.8923 48.3761 25.9845C51.6631 28.4345 60.2621 28.5615 63.5871 26.2155C65.2871 25.0205 65.5161 23.3805 64.1191 21.7015C62.4191 19.6445 60.0581 18.6615 57.6041 17.8405C57.1971 17.7055 56.7911 17.5895 56.3721 17.4835C55.7621 17.3195 55.1911 17.0885 55.4341 16.3055C55.6751 15.5445 56.2471 15.8425 56.7521 16.0055C59.2853 16.6719 61.6481 17.8687 63.6841 19.5165C64.4941 20.2115 65.1397 21.0777 65.5741 22.0525C65.5981 21.9465 65.6011 21.7975 65.6571 21.7785C67.5571 20.9785 68.0621 19.5295 68.1791 17.5225C68.3531 14.4155 68.9791 11.3295 69.4081 8.22254C69.4971 7.58454 69.6011 6.99654 70.4271 7.13054C71.2811 7.27554 70.9111 7.94254 70.8441 8.40554C70.3211 11.8685 69.7111 15.3135 69.4381 18.8255C70.0801 18.8345 70.3801 18.3255 70.7381 17.9875C75.5461 13.4815 79.1041 8.24254 80.4031 1.68054C80.5201 1.06354 80.5301 0.242542 81.4791 0.502542C82.3321 0.736542 81.8971 1.50254 81.8001 1.97954C80.4901 8.15254 77.1841 13.2005 72.7431 17.5895C72.2871 18.0445 71.8041 18.4585 71.1641 19.0465C72.5401 19.2095 73.9261 19.2195 74.3911 20.6285C75.0811 22.7405 74.4491 24.6985 73.4911 26.5925C73.6651 26.9925 73.9671 26.9565 74.2721 26.9245C74.458 26.8819 74.6527 26.9005 74.8271 26.9775C79.3541 25.9635 82.1961 22.9335 84.3671 19.1035C84.7236 18.4524 85.0379 17.779 85.3081 17.0875C85.5401 16.5095 85.7921 15.8805 86.5271 16.1875C87.4881 16.5725 86.7021 17.2085 86.5181 17.6125C84.6181 21.7915 81.9251 25.2455 77.4931 27.0405C76.3075 27.5276 75.0434 27.7952 73.7621 27.8305C73.0796 27.8276 72.4058 27.9837 71.7941 28.2865C71.4848 28.4782 71.134 28.5926 70.7711 28.6201C70.4083 28.6476 70.0442 28.5874 69.7096 28.4445C69.375 28.3016 69.0797 28.0802 68.8486 27.7992C68.6176 27.5181 68.4576 27.1855 68.3821 26.8295C67.9007 25.1567 67.6946 23.4166 67.7721 21.6775C67.0091 21.7545 66.3831 22.5835 65.5831 22.0775C66.5561 24.4495 65.5121 26.8615 62.5571 28.4135C60.4129 29.3949 58.0686 29.86 55.7121 29.7715H55.4411C53.0129 29.8112 50.6157 29.2224 48.4821 28.0625ZM70.7461 20.4365C70.0651 21.1806 69.6685 22.141 69.626 23.1488C69.5836 24.1565 69.8981 25.1469 70.5141 25.9455C71.5321 27.0655 72.0141 26.9785 72.5781 25.5605C72.9435 24.6725 73.1568 23.7294 73.2091 22.7705C73.2585 22.1492 73.1754 21.5244 72.9651 20.9375C72.6651 20.2645 72.2581 19.9185 71.7951 19.9185C71.3926 19.9526 71.0179 20.1376 70.7461 20.4365ZM30.2251 26.8525C29.9658 26.0484 29.8033 25.2162 29.7411 24.3735C29.6631 23.5335 29.7211 22.6735 29.7211 21.8165C29.3961 21.8168 29.0776 21.9076 28.8011 22.0785C28.3641 22.2975 27.9451 22.5175 27.4421 22.1345C27.4711 22.0185 27.4711 21.8745 27.5221 21.8545C29.5101 21.0845 29.8861 19.5205 30.0421 17.5815C30.2931 14.4165 30.8741 11.2815 31.3001 8.12554C31.3891 7.49954 31.6321 7.08254 32.3101 7.21954C33.0391 7.35454 32.7761 7.91354 32.7101 8.36654C32.2101 11.8595 31.7301 15.3615 31.1981 19.1255C31.4583 18.9849 31.7104 18.8296 31.9531 18.6605C37.0951 14.0405 40.9261 8.60754 42.2841 1.69954C42.4001 1.12154 42.4201 0.418542 43.2741 0.562542C44.2521 0.725542 43.7741 1.47754 43.6811 1.94954C42.3721 8.30854 38.9391 13.4605 34.3341 17.9495C33.9471 18.3155 33.5501 18.6615 32.9891 19.1845C35.9731 19.4255 36.7401 20.3505 36.4501 23.2075C36.3654 24.9763 35.6212 26.6493 34.3641 27.8965C33.8605 28.4078 33.1812 28.7085 32.4641 28.7375C31.9372 28.708 31.434 28.5083 31.0303 28.1684C30.6266 27.8285 30.344 27.3668 30.2251 26.8525ZM32.7441 20.3785C30.9801 21.7395 31.1271 25.3375 32.9691 26.5345C33.5101 26.8915 33.8691 26.9345 34.1881 26.2555C34.7101 25.0986 35.0129 23.8549 35.0811 22.5875C35.1376 22.0031 35.0372 21.4142 34.7901 20.8815C34.5161 20.2815 34.1461 19.9815 33.7051 19.9815C33.35 20.0051 33.0124 20.1446 32.7441 20.3785ZM40.7441 27.3735C40.4611 25.9639 40.37 24.5226 40.4731 23.0885C40.6108 22.4581 40.5055 21.799 40.1783 21.2428C39.8511 20.6866 39.3261 20.2744 38.7081 20.0885C36.2291 18.9035 36.0231 16.8885 38.2721 15.2755C40.285 13.8116 42.5852 12.7906 45.0211 12.2797C47.4571 11.7688 49.9737 11.7797 52.4051 12.3115C54.3141 12.6875 54.5941 13.6245 53.5881 15.3325C53.5184 15.4756 53.4296 15.6084 53.3241 15.7275C52.8301 16.2475 52.4341 17.4445 51.8051 17.0785C50.9501 16.5785 52.1531 15.9875 52.3561 15.4095C52.6851 14.4725 52.5301 13.8555 51.5911 13.4995C51.2985 13.3685 50.9876 13.2832 50.6691 13.2465C47.1424 12.8685 43.5819 13.5263 40.4231 15.1395C37.9611 16.4305 37.9511 17.8685 40.4231 19.5865C40.5481 18.6515 40.6451 17.8595 40.7801 17.0785C40.7897 16.8873 40.8727 16.7071 41.0119 16.5755C41.151 16.444 41.3356 16.3713 41.5271 16.3725C42.0891 16.4015 41.9351 16.8855 41.9441 17.2325C41.9754 17.7633 41.9626 18.2958 41.9061 18.8245C41.7511 19.9615 41.9741 20.8015 43.2731 21.0525C43.6121 21.1195 44.1051 21.2525 43.9031 21.7525C43.7481 22.1305 43.3121 21.9455 43.0511 21.8195C41.9511 21.3085 41.8681 21.8965 41.8191 22.7755C41.8467 24.6856 41.6748 26.5932 41.3061 28.4675C40.7611 28.2525 40.8111 27.7875 40.7441 27.3735ZM18.3871 28.0045C18.1941 27.4265 18.8641 27.4045 19.2001 27.2625C20.8867 26.6206 22.5095 25.8221 24.0471 24.8775C26.3471 23.3045 26.2601 22.0135 23.8541 20.6715C23.3701 20.4015 22.2251 20.3925 22.5741 19.6575C22.9921 18.7905 23.9031 19.4645 24.5241 19.7825C25.8631 20.4495 27.1991 21.1625 27.4621 22.6975C27.4671 23.0434 27.3958 23.386 27.2532 23.7012C27.1106 24.0163 26.9002 24.296 26.6371 24.5205C24.5901 26.3925 21.9951 27.2525 19.5001 28.2925C19.349 28.3561 19.1871 28.39 19.0231 28.3925C18.8891 28.406 18.7543 28.3754 18.6392 28.3054C18.524 28.2354 18.4349 28.1298 18.3851 28.0045H18.3871ZM59.1001 24.3625C59.113 24.1232 59.2129 23.8969 59.3811 23.7261C59.5492 23.5554 59.774 23.452 60.0131 23.4355C60.1057 23.4209 60.2004 23.4292 60.2891 23.4597C60.3777 23.4902 60.4575 23.542 60.5214 23.6105C60.5854 23.679 60.6316 23.7621 60.6559 23.8526C60.6803 23.9431 60.6821 24.0382 60.6611 24.1295C60.6396 24.3968 60.5234 24.6477 60.3335 24.837C60.1436 25.0263 59.8925 25.1418 59.6251 25.1625C59.1491 25.0855 59.0331 24.7675 59.1001 24.3625Z" fill="#0B032D"/>
</g>
<defs>
<clipPath id="clip0_5_12689">
<rect width="87" height="37" fill="white"/>
</clipPath>
</defs>
</svg>
