<svg width="24" height="25" viewBox="0 0 24 25" fill="none" xmlns="http://www.w3.org/2000/svg">
<g clip-path="url(#clip0_3_4012)">
<path d="M21 8.27881H3C2.80149 8.2775 2.61149 8.19806 2.47112 8.05769C2.33075 7.91732 2.25131 7.72732 2.25 7.52881C2.25131 7.3303 2.33075 7.1403 2.47112 6.99993C2.61149 6.85956 2.80149 6.78012 3 6.77881H21C21.1985 6.78012 21.3885 6.85956 21.5289 6.99993C21.6693 7.1403 21.7487 7.3303 21.75 7.52881C21.7487 7.72732 21.6693 7.91732 21.5289 8.05769C21.3885 8.19806 21.1985 8.2775 21 8.27881Z" fill="#0B032D"/>
<path d="M21 13.2788H3C2.80149 13.2775 2.61149 13.1981 2.47112 13.0577C2.33075 12.9173 2.25131 12.7273 2.25 12.5288C2.25131 12.3303 2.33075 12.1403 2.47112 11.9999C2.61149 11.8596 2.80149 11.7801 3 11.7788H21C21.1985 11.7801 21.3885 11.8596 21.5289 11.9999C21.6693 12.1403 21.7487 12.3303 21.75 12.5288C21.7487 12.7273 21.6693 12.9173 21.5289 13.0577C21.3885 13.1981 21.1985 13.2775 21 13.2788Z" fill="#0B032D"/>
<path d="M21 18.2788H3C2.80149 18.2775 2.61149 18.1981 2.47112 18.0577C2.33075 17.9173 2.25131 17.7273 2.25 17.5288C2.25131 17.3303 2.33075 17.1403 2.47112 16.9999C2.61149 16.8596 2.80149 16.7801 3 16.7788H21C21.1985 16.7801 21.3885 16.8596 21.5289 16.9999C21.6693 17.1403 21.7487 17.3303 21.75 17.5288C21.7487 17.7273 21.6693 17.9173 21.5289 18.0577C21.3885 18.1981 21.1985 18.2775 21 18.2788Z" fill="#0B032D"/>
</g>
<defs>
<clipPath id="clip0_3_4012">
<rect width="24" height="24" fill="white" transform="translate(0 0.528809)"/>
</clipPath>
</defs>
</svg>
