<svg width="24" height="25" viewBox="0 0 24 25" fill="none" xmlns="http://www.w3.org/2000/svg">
<g clip-path="url(#clip0_3_6316)">
<path d="M23.52 11.4053H22.191C22.0777 9.03328 21.141 6.775 19.542 5.0193L20.485 4.0763C20.5289 4.03251 20.5636 3.98042 20.5871 3.92308C20.6106 3.86573 20.6225 3.80427 20.622 3.74229C20.6236 3.64731 20.5967 3.55402 20.5448 3.47444C20.4929 3.39486 20.4184 3.33261 20.3309 3.29573C20.2434 3.25884 20.1468 3.24901 20.0536 3.26747C19.9604 3.28592 19.8749 3.33183 19.808 3.3993L18.857 4.3423L18.18 5.0193L17.443 5.7563L16.757 6.4423C17.0025 6.65349 17.2318 6.88278 17.443 7.12828C18.4859 8.32175 19.109 9.82405 19.217 11.4053C19.226 11.5593 19.234 11.7223 19.234 11.8853C19.234 12.0483 19.225 12.2113 19.217 12.3653C19.109 13.9465 18.4859 15.4488 17.443 16.6423C17.2318 16.8878 17.0025 17.1171 16.757 17.3283C15.5635 18.3712 14.0612 18.9943 12.48 19.1023C12.326 19.1113 12.163 19.1193 12 19.1193C11.837 19.1193 11.674 19.1103 11.52 19.1023C9.93877 18.9943 8.43647 18.3712 7.243 17.3283C6.99749 17.1171 6.76819 16.8878 6.55701 16.6423C5.51413 15.4488 4.89102 13.9465 4.783 12.3653C4.774 12.2113 4.76601 12.0483 4.76601 11.8853C4.76601 11.7223 4.775 11.5593 4.783 11.4053C4.92237 9.49485 5.80173 7.71423 7.23399 6.4423L5.134 4.3423L4.19099 3.3993C4.12412 3.33183 4.03859 3.28592 3.9454 3.26747C3.85222 3.24901 3.75565 3.25884 3.66811 3.29573C3.58056 3.33261 3.50605 3.39486 3.45418 3.47444C3.4023 3.55402 3.37542 3.64731 3.377 3.74229C3.37653 3.80427 3.38841 3.86573 3.41193 3.92308C3.43545 3.98042 3.47015 4.03251 3.51401 4.0763L4.457 5.0193C2.85802 6.775 1.92125 9.03328 1.808 11.4053H0.479996C0.352692 11.4053 0.230612 11.4559 0.140594 11.5459C0.050577 11.6359 0 11.758 0 11.8853C0 12.0126 0.050577 12.1347 0.140594 12.2247C0.230612 12.3147 0.352692 12.3653 0.479996 12.3653H1.80901C1.92225 14.7373 2.85901 16.9956 4.45799 18.7513L3.515 19.6943C3.43031 19.7851 3.38418 19.9052 3.38634 20.0293C3.38849 20.1535 3.43876 20.272 3.52655 20.3598C3.61434 20.4475 3.73281 20.4978 3.85695 20.5C3.98109 20.5021 4.10121 20.456 4.192 20.3713L5.13499 19.4283C6.89086 21.026 9.14873 21.9616 11.52 22.0743V23.4033C11.52 23.5306 11.5706 23.6527 11.6606 23.7427C11.7506 23.8327 11.8727 23.8833 12 23.8833C12.1273 23.8833 12.2494 23.8327 12.3394 23.7427C12.4294 23.6527 12.48 23.5306 12.48 23.4033V22.0743C14.852 21.961 17.1103 21.0243 18.866 19.4253L19.809 20.3683C19.8529 20.4153 19.9057 20.453 19.9645 20.4792C20.0232 20.5053 20.0866 20.5194 20.1509 20.5205C20.2152 20.5216 20.2791 20.5098 20.3387 20.4857C20.3983 20.4616 20.4525 20.4257 20.498 20.3803C20.5434 20.3348 20.5793 20.2806 20.6034 20.221C20.6275 20.1614 20.6393 20.0975 20.6382 20.0332C20.6371 19.969 20.623 19.9055 20.5969 19.8468C20.5707 19.788 20.533 19.7352 20.486 19.6913L19.543 18.7483C21.142 16.9926 22.0788 14.7343 22.192 12.3623H23.521C23.6467 12.3573 23.766 12.3052 23.8549 12.2162C23.9439 12.1273 23.9961 12.008 24.001 11.8823C24.0007 11.8194 23.9881 11.7572 23.9638 11.6991C23.9395 11.6411 23.904 11.5885 23.8593 11.5442C23.8146 11.4999 23.7617 11.4648 23.7035 11.441C23.6452 11.4172 23.5829 11.405 23.52 11.4053ZM5.134 5.7053L5.871 6.4423C4.64776 7.81817 3.92566 9.56719 3.82201 11.4053H2.76801C2.88273 9.29087 3.71766 7.27943 5.134 5.7053ZM2.76801 12.3653H3.82201C3.92566 14.2034 4.64776 15.9524 5.871 17.3283L5.134 18.0653C3.71809 16.491 2.88253 14.4795 2.76801 12.3653ZM11.519 21.1163C9.40458 21.0016 7.39313 20.1666 5.819 18.7503L6.556 18.0133C7.93186 19.2365 9.68091 19.9586 11.519 20.0623V21.1163ZM12.479 21.1163V20.0623C14.3171 19.9586 16.0661 19.2365 17.442 18.0133L18.179 18.7503C16.6053 20.1668 14.5942 21.0021 12.48 21.1173L12.479 21.1163ZM18.865 18.0653L18.128 17.3283C19.3512 15.9524 20.0733 14.2034 20.177 12.3653H21.231C21.1165 14.4795 20.2809 16.491 18.865 18.0653ZM20.176 11.4053C20.0723 9.56719 19.3502 7.81817 18.127 6.4423L18.864 5.7053C20.2803 7.27943 21.1153 9.29087 21.23 11.4053H20.176Z" fill="#0B032D"/>
<path d="M12.479 15.7833H11.52V22.5683H12.479V15.7833Z" fill="#0B032D"/>
<path d="M15.43 14.4743L15.413 14.8513C15.4122 14.8918 15.4065 14.9321 15.396 14.9713L15.37 15.1003L15.353 15.2003C15.327 15.3003 15.302 15.4003 15.276 15.4913C15.2153 15.6807 15.138 15.8644 15.045 16.0403L14.916 16.2713C14.866 16.3635 14.8056 16.4497 14.736 16.5283L14.636 16.6653C14.574 16.7436 14.5072 16.8181 14.436 16.8883L14.427 16.8973C14.3037 17.0201 14.1699 17.1319 14.027 17.2313C13.9496 17.296 13.8662 17.3532 13.778 17.4023C13.709 17.4453 13.641 17.4793 13.572 17.5133C13.4109 17.5971 13.2438 17.6686 13.072 17.7273C13.046 17.7363 13.021 17.7443 12.986 17.7533C12.9301 17.7716 12.873 17.786 12.815 17.7963C12.7138 17.8245 12.6105 17.8446 12.506 17.8563C12.1714 17.9135 11.8296 17.9135 11.495 17.8563C11.3906 17.8446 11.2872 17.8245 11.186 17.7963C11.1281 17.786 11.0709 17.7716 11.015 17.7533C10.981 17.7443 10.955 17.7363 10.929 17.7273C10.7572 17.6686 10.5901 17.5971 10.429 17.5133C10.3579 17.485 10.2907 17.4476 10.229 17.4023C10.1353 17.3584 10.0487 17.3008 9.97202 17.2313C9.82344 17.1316 9.6857 17.0166 9.56102 16.8883C9.48984 16.8181 9.42304 16.7436 9.36101 16.6653C9.32302 16.6232 9.28952 16.5773 9.26102 16.5283C9.19143 16.4498 9.13104 16.3635 9.08101 16.2713C9.02804 16.2003 8.98466 16.1226 8.95201 16.0403C8.85906 15.8644 8.78176 15.6807 8.72101 15.4913C8.69501 15.3973 8.67001 15.3023 8.64401 15.2003C8.63305 15.1681 8.62731 15.1343 8.62701 15.1003L8.60101 14.9713C8.59056 14.9321 8.58485 14.8918 8.58401 14.8513C8.57501 14.7313 8.56702 14.6023 8.56702 14.4743H15.43Z" fill="#0B032D"/>
<path d="M15.43 8.43927V13.6163H8.57098V8.43927C8.57178 7.91197 8.69624 7.39223 8.93434 6.92175C9.17245 6.45128 9.51757 6.04319 9.94199 5.73029H9.95099C10.5413 5.28414 11.261 5.04276 12.001 5.04276C12.7409 5.04276 13.4607 5.28414 14.051 5.73029H14.06C14.4842 6.0433 14.8292 6.4514 15.0671 6.92188C15.305 7.39235 15.4293 7.91206 15.43 8.43927Z" fill="#FCBF17"/>
<path d="M15.43 12.7593H8.573V13.6163H15.43V12.7593Z" fill="#0B032D"/>
<path d="M8.18301 5.6503L7.63702 4.98828L7.96802 4.7153C9.0967 3.73322 10.5342 3.1783 12.03 3.14728C13.4996 3.16928 14.915 3.70574 16.03 4.6633L16.363 4.93329L15.824 5.5993L15.491 5.33029C14.5293 4.47197 13.2831 4.00142 11.9942 4.00992C10.7052 4.01842 9.46529 4.50535 8.51501 5.37628L8.18301 5.6503Z" fill="#FCBF17"/>
<path d="M6.011 4.77631L5.41101 4.1633L5.71701 3.86331C6.52776 3.01344 7.50252 2.3369 8.58231 1.87466C9.66209 1.41243 10.8244 1.1741 11.999 1.1741C13.1736 1.1741 14.3359 1.41243 15.4157 1.87466C16.4955 2.3369 17.4703 3.01344 18.281 3.86331L18.587 4.1633L17.987 4.77631L17.679 4.47629C16.1758 2.95358 14.1382 2.07684 11.999 2.03229C9.85541 2.06472 7.81183 2.94452 6.315 4.47931L6.011 4.77631Z" fill="#FCBF17"/>
</g>
<defs>
<clipPath id="clip0_3_6316">
<rect width="24" height="24" fill="white" transform="translate(0 0.529297)"/>
</clipPath>
</defs>
</svg>
