<svg width="24" height="25" viewBox="0 0 24 25" fill="none" xmlns="http://www.w3.org/2000/svg">
<g clip-path="url(#clip0_3_3964)">
<path d="M11.5 22.2788C9.47275 22.2788 7.49101 21.6777 5.80541 20.5514C4.11981 19.4251 2.80604 17.8243 2.03024 15.9513C1.25444 14.0784 1.05146 12.0174 1.44696 10.0291C1.84245 8.04083 2.81867 6.21446 4.25216 4.78097C5.68565 3.34748 7.51202 2.37126 9.50033 1.97576C11.4886 1.58027 13.5496 1.78325 15.4225 2.55905C17.2955 3.33485 18.8963 4.64861 20.0226 6.33422C21.1489 8.01982 21.75 10.0016 21.75 12.0288C21.7463 14.7461 20.6652 17.3511 18.7438 19.2726C16.8223 21.194 14.2173 22.2751 11.5 22.2788ZM11.5 3.27881C9.76942 3.27881 8.0777 3.79199 6.63877 4.75345C5.19984 5.71492 4.07833 7.08148 3.41606 8.68033C2.75379 10.2792 2.58051 12.0385 2.91813 13.7359C3.25575 15.4332 4.08911 16.9923 5.31282 18.216C6.53653 19.4397 8.09563 20.2731 9.79296 20.6107C11.4903 20.9483 13.2496 20.775 14.8485 20.1128C16.4473 19.4505 17.8139 18.329 18.7754 16.8901C19.7368 15.4511 20.25 13.7594 20.25 12.0288C20.2474 9.70898 19.3246 7.48492 17.6843 5.84455C16.0439 4.20418 13.8198 3.28146 11.5 3.27881Z" fill="#FFFF"/>
<path d="M22.001 23.2818C21.9025 23.2821 21.8049 23.2628 21.7139 23.2251C21.6229 23.1873 21.5403 23.1318 21.471 23.0618L19.471 21.0618C19.3302 20.9212 19.251 20.7304 19.2508 20.5315C19.2506 20.3325 19.3294 20.1416 19.47 20.0008C19.6106 19.8599 19.8013 19.7807 20.0003 19.7805C20.1993 19.7803 20.3902 19.8592 20.531 19.9998L22.531 21.9998C22.6705 22.1409 22.7487 22.3313 22.7487 22.5298C22.7487 22.7282 22.6705 22.9186 22.531 23.0598C22.4619 23.1301 22.3794 23.186 22.2884 23.2241C22.1974 23.2623 22.0997 23.2819 22.001 23.2818Z" fill="#FFFF"/>
</g>
<defs>
<clipPath id="clip0_3_3964">
<rect width="24" height="24" fill="white" transform="translate(0 0.528809)"/>
</clipPath>
</defs>
</svg>
